#!OML:ASF H:\LiuWeirdWalks\Patient Classification 1\Patient 1\Session 1\male.ASF
:FULLY-SPECIFIED
:DEGREES
869
root 1.98154 17.9078 -8.30568 3.96971 0.713453 4.67646
lowerback 3.35003 -4.28309 -6.61666
upperback -1.0251 -5.94661 2.74616
thorax -1.97453 -2.87206 6.81533
lowerneck -16.2205 1.34449 5.96783
upperneck 20.8933 1.54407 -5.41527
head 9.34584 0.584084 -2.67457
rclavicle 4.17448e-014 -2.94201e-014
rhumerus -45.1676 -8.04653 -72.4917
rradius 30.554
rwrist -7.02817
rhand -15.4911 -4.89084
rfingers 7.12502
rthumb 10.6911 -34.5988
lclavicle 4.17448e-014 -2.94201e-014
lhumerus -22.5722 -4.39637 93.0984
lradius 31.4762
lwrist 10.5916
lhand -11.7451 -1.79648
lfingers 7.12502
lthumb 14.3027 27.6909
rfemur -30.602 -2.04149 14.2097
rtibia 25.3722
rfoot -6.4212 -14.7979
rtoes -15.4601
lfemur 13.5148 -1.98386 -28.1386
ltibia 6.30129
lfoot -7.19968 5.03865
ltoes -17.0364
870
root 1.9594 17.9158 -8.24506 4.03422 0.769332 4.61701
lowerback 3.33421 -4.27159 -6.58656
upperback -1.03344 -5.92838 2.78233
thorax -1.97644 -2.86294 6.83519
lowerneck -16.2918 1.33868 5.9825
upperneck 20.9502 1.52676 -5.4024
head 9.37782 0.578002 -2.67598
rclavicle 2.78299e-015 1.03368e-014
rhumerus -45.14 -7.85214 -72.6478
rradius 30.8476
rwrist -7.24003
rhand -15.4244 -4.84738
rfingers 7.12502
rthumb 10.7554 -34.552
lclavicle 2.78299e-015 1.03368e-014
lhumerus -22.6395 -4.55912 93.1537
lradius 31.4494
lwrist 10.5628
lhand -11.6686 -1.83106
lfingers 7.12502
lthumb 14.3763 27.6511
rfemur -30.5322 -2.016 14.3472
rtibia 25.4782
rfoot -6.30046 -14.7036
rtoes -15.3916
lfemur 13.5564 -2.11883 -27.9615
ltibia 6.44545
lfoot -7.05142 4.84777
ltoes -17.4883
871
root 1.93752 17.9242 -8.18477 4.09758 0.813311 4.55077
lowerback 3.32637 -4.25422 -6.53605
upperback -1.04299 -5.90201 2.81216
thorax -1.9881 -2.84955 6.83762
lowerneck -16.3206 1.32402 5.99398
upperneck 20.9785 1.49659 -5.37761
head 9.39105 0.567438 -2.67369
rclavicle 9.93923e-017 1.43125e-014
rhumerus -45.1123 -7.68853 -72.7983
rradius 31.1482
rwrist -7.41861
rhand -15.352 -4.80224
rfingers 7.12502
rthumb 10.8253 -34.5033
lclavicle 9.93923e-017 1.43125e-014
lhumerus -22.7011 -4.71272 93.1996
lradius 31.414
lwrist 10.451
lhand -11.6105 -1.92903
lfingers 7.12502
lthumb 14.4323 27.5491
rfemur -30.4671 -1.97184 14.4912
rtibia 25.596
rfoot -6.21466 -14.6332
rtoes -15.3552
lfemur 13.6028 -2.24155 -27.7772
ltibia 6.57608
lfoot -6.88844 4.64705
ltoes -17.9716
872
root 1.91613 17.9328 -8.12485 4.15854 0.848882 4.4807
lowerback 3.32459 -4.23716 -6.47352
upperback -1.05321 -5.87588 2.84169
thorax -2.005 -2.83617 6.83359
lowerneck -16.3306 1.31203 6.0135
upperneck 21.0153 1.46997 -5.35606
head 9.40405 0.559066 -2.67353
rclavicle 4.1546e-014 -2.38542e-014
rhumerus -45.086 -7.53035 -72.9481
rradius 31.4695
rwrist -7.59688
rhand -15.3027 -4.8028
rfingers 7.12502
rthumb 10.8728 -34.5013
lclavicle 4.1546e-014 -2.38542e-014
lhumerus -22.7515 -4.82802 93.2368
lradius 31.3804
lwrist 10.3095
lhand -11.5297 -1.9677
lfingers 7.12502
lthumb 14.5102 27.5049
rfemur -30.4038 -1.92373 14.6391
rtibia 25.727
rfoot -6.16473 -14.5722
rtoes -15.2985
lfemur 13.6504 -2.35503 -27.5908
ltibia 6.70268
lfoot -6.71074 4.44437
ltoes -18.4703
873
root 1.89519 17.9416 -8.06529 4.21607 0.880631 4.41487
lowerback 3.33724 -4.22248 -6.4045
upperback -1.06872 -5.85364 2.86653
thorax -2.03595 -2.82408 6.82266
lowerneck -16.2958 1.31201 6.05543
upperneck 21.0015 1.45918 -5.35121
head 9.39242 0.558369 -2.6799
rclavicle -1.35174e-014 -7.15625e-015
rhumerus -45.0493 -7.40766 -73.0795
rradius 31.7674
rwrist -7.74964
rhand -15.2585 -4.77966
rfingers 7.12502
rthumb 10.9154 -34.4759
lclavicle -1.35174e-014 -7.15625e-015
lhumerus -22.8137 -4.89789 93.2636
lradius 31.3602
lwrist 10.1546
lhand -11.428 -1.95633
lfingers 7.12502
lthumb 14.6081 27.5092
rfemur -30.3362 -1.87671 14.7804
rtibia 25.8651
rfoot -6.15781 -14.5225
rtoes -15.2449
lfemur 13.6904 -2.46358 -27.4125
ltibia 6.84442
lfoot -6.52191 4.24811
ltoes -18.9958
874
root 1.87446 17.9507 -8.00602 4.27866 0.916406 4.35851
lowerback 3.35316 -4.21519 -6.33635
upperback -1.09119 -5.84167 2.88638
thorax -2.07474 -2.81661 6.80783
lowerneck -16.277 1.31127 6.07112
upperneck 21.0109 1.44786 -5.32008
head 9.39146 0.558121 -2.6732
rclavicle 4.04527e-014 -1.35174e-014
rhumerus -45.0078 -7.31789 -73.1944
rradius 32.0474
rwrist -7.87428
rhand -15.2322 -4.77073
rfingers 7.12502
rthumb 10.9408 -34.4657
lclavicle 4.04527e-014 -1.35174e-014
lhumerus -22.8874 -4.93042 93.2782
lradius 31.3565
lwrist 10.0253
lhand -11.3669 -1.92729
lfingers 7.12502
lthumb 14.667 27.534
rfemur -30.2717 -1.8326 14.9088
rtibia 26.0057
rfoot -6.16932 -14.4763
rtoes -15.1508
lfemur 13.7144 -2.57634 -27.2473
ltibia 6.99659
lfoot -6.31818 4.06065
ltoes -19.5131
875
root 1.85355 17.9599 -7.94714 4.34665 0.966848 4.30384
lowerback 3.37469 -4.22066 -6.27476
upperback -1.12414 -5.84741 2.90959
thorax -2.12373 -2.81721 6.80167
lowerneck -16.256 1.32349 6.09777
upperneck 21.0134 1.45556 -5.30533
head 9.38908 0.565788 -2.67152
rclavicle 5.17834e-014 -1.90833e-014
rhumerus -44.9633 -7.23208 -73.2992
rradius 32.3059
rwrist -7.99845
rhand -15.2307 -4.76371
rfingers 7.12502
rthumb 10.9422 -34.4586
lclavicle 5.17834e-014 -1.90833e-014
lhumerus -22.9786 -4.92642 93.2832
lradius 31.3768
lwrist 9.96787
lhand -11.3381 -1.88783
lfingers 7.12502
lthumb 14.6948 27.5714
rfemur -30.2088 -1.79798 15.035
rtibia 26.1442
rfoot -6.19166 -14.4292
rtoes -15.0431
lfemur 13.7304 -2.70355 -27.0857
ltibia 7.1471
lfoot -6.10163 3.88691
ltoes -20.012
